<svg width="528" height="528"
    xmlns="http://www.w3.org/2000/svg"
    xmlns:xlink="http://www.w3.org/1999/xlink" xml:space="preserve" overflow="hidden">
    <defs>
        <clipPath id="clip0">
            <rect x="412" y="60" width="528" height="528"/>
        </clipPath>
        <clipPath id="clip1">
            <rect x="412" y="60" width="528" height="528"/>
        </clipPath>
        <clipPath id="clip2">
            <rect x="494" y="142" width="100" height="368"/>
        </clipPath>
        <clipPath id="clip3">
            <rect x="494" y="142" width="100" height="368"/>
        </clipPath>
        <clipPath id="clip4">
            <rect x="762" y="145" width="101" height="359"/>
        </clipPath>
        <clipPath id="clip5">
            <rect x="762" y="145" width="101" height="359"/>
        </clipPath>
        <clipPath id="clip6">
            <rect x="664" y="317" width="30" height="13"/>
        </clipPath>
        <clipPath id="clip7">
            <rect x="664" y="317" width="30" height="13"/>
        </clipPath>
    </defs>
    <g clip-path="url(#clip0)" transform="translate(-412 -60)">
        <g clip-path="url(#clip1)">
            <path d="M420.105 324C420.105 182.673 534.673 68.1053 676 68.1053 817.321 68.1053 931.895 182.673 931.895 324 931.895 465.327 817.321 579.895 676 579.895 534.673 579.895 420.105 465.327 420.105 324Z" stroke="#000000" stroke-width="13.8947" stroke-linecap="butt" stroke-linejoin="miter" stroke-miterlimit="8" stroke-opacity="1" fill="none" fill-rule="evenodd"/>
            <path d="M494.211 145.684 494.211 507.727" stroke="#000000" stroke-width="13.8947" stroke-linecap="butt" stroke-linejoin="miter" stroke-miterlimit="8" stroke-opacity="1" fill="none" fill-rule="evenodd"/>
            <path d="M860.105 142.211 860.105 504.253" stroke="#000000" stroke-width="13.8947" stroke-linecap="butt" stroke-linejoin="miter" stroke-miterlimit="8" stroke-opacity="1" fill="none" fill-rule="evenodd"/>
            <path d="M585.684 326.316 678.316 143.368 770.947 326.316 678.316 509.263Z" stroke="#000000" stroke-width="13.8947" stroke-linecap="butt" stroke-linejoin="miter" stroke-miterlimit="8" stroke-opacity="1" fill="none" fill-rule="evenodd"/>
            <path d="M615.789 326.316 678.316 201.263 740.842 326.316 678.316 451.368Z" stroke="#000000" stroke-width="11.5789" stroke-linecap="butt" stroke-linejoin="miter" stroke-miterlimit="8" stroke-opacity="1" fill="none" fill-rule="evenodd"/>
            <path d="M642.421 322.842 678.316 252.211 714.211 322.842 678.316 393.474Z" stroke="#000000" stroke-width="9.26316" stroke-linecap="butt" stroke-linejoin="miter" stroke-miterlimit="8" stroke-opacity="1" fill="none" fill-rule="evenodd"/>
            <path d="M662.105 322.842 678.316 290.421 694.526 322.842 678.316 355.263Z" stroke="#000000" stroke-width="4.63158" stroke-linecap="butt" stroke-linejoin="miter" stroke-miterlimit="8" stroke-opacity="1" fill="none" fill-rule="evenodd"/>
            <path d="M670.789 324C670.789 319.843 674.418 316.474 678.895 316.474 683.371 316.474 687 319.843 687 324 687 328.157 683.371 331.526 678.895 331.526 674.418 331.526 670.789 328.157 670.789 324Z" stroke="#000000" stroke-width="3.47368" stroke-linecap="butt" stroke-linejoin="miter" stroke-miterlimit="8" stroke-opacity="1" fill="none" fill-rule="evenodd"/>
            <g clip-path="url(#clip2)">
                <g clip-path="url(#clip3)">
                    <path d="M816.435 613.461 907.15 434.299 997.866 613.461 907.15 792.622Z" stroke="#000000" stroke-width="13.6072" stroke-linecap="butt" stroke-linejoin="miter" stroke-miterlimit="8" stroke-opacity="1" fill="none" fill-rule="evenodd" transform="matrix(1 0 0 1.00156 -413.147 -287.85)"/>
                </g>
            </g>
            <g clip-path="url(#clip4)">
                <g clip-path="url(#clip5)">
                    <path d="M815.596 612.83 906.218 433.852 996.84 612.83 906.218 791.808Z" stroke="#000000" stroke-width="13.5932" stroke-linecap="butt" stroke-linejoin="miter" stroke-miterlimit="8" stroke-opacity="1" fill="none" fill-rule="evenodd" transform="matrix(1.00459 0 0 1 -47.3959 -286.591)"/>
                </g>
            </g>
            <g clip-path="url(#clip6)">
                <g clip-path="url(#clip7)">
                    <path d="M765.965 415.96 777.294 392.896 788.624 415.96 777.294 439.024Z" stroke="#000000" stroke-width="2.42778" stroke-linecap="butt" stroke-linejoin="miter" stroke-miterlimit="8" stroke-opacity="1" fill="none" fill-rule="evenodd" transform="matrix(1.05206 0 0 1 -139.295 -112.067)"/>
                </g>
            </g>
        </g>
    </g>
</svg>